:FULLY-SPECIFIED
:FORCE-ALL-JOINTS-BE-3DOF
:DEGREES
1733
root -4.64937 15.7112 27.5812 932.11 5.101 162.007
lfemur -51.2899 25.8578 -22.1048
ltibia 66.1367 0 0
lfoot -16.5103 33.0766 0
ltoes -0.409803 0 0
rfemur -22.2026 -21.4428 20.3887
rtibia 73.2175 0 0
rfoot -9.47202 -27.3935 0
rtoes 13.7528 0 0
lowerback 15.007 2.49703 -4.09195
upperback -1.45596 2.81381 3.1096
thorax -10.2328 1.66769 5.10677
lowerneck 4.04712 -14.7128 -15.8609
upperneck -2.85162 -20.9591 22.7673
head 2.75035 -10.8503 8.49047
lclavicle 3.70465e-14 2.4956e-14 0
lhumerus -54.4301 -48.5211 120.757
lradius 99.8093 0 0
lwrist 40.2976 0 0
lhand -3.82108 40.0811 0
lfingers 7.12502 0 0
lthumb 21.9273 68.9275 0
rclavicle 3.70465e-14 2.4956e-14 0
rhumerus 58.4977 30.0583 -18.3208
rradius 106.401 0 0
rwrist -2.98926 0 0
rhand 7.43614 -19.8492 0
rfingers 7.12502 0 0
rthumb 32.6501 -65.4447 0
1734
root -4.60033 15.7234 27.6354 932.428 7.881 160.72
lfemur -50.9124 25.6481 -21.5497
ltibia 66.8001 0 0
lfoot -16.3909 32.7237 0
ltoes -1.10805 0 0
rfemur -22.5506 -22.3339 20.8851
rtibia 73.0133 0 0
rfoot -9.56031 -27.43 0
rtoes 13.4207 0 0
lowerback 14.9928 2.65788 -4.02733
upperback -1.47752 3.03406 3.01327
thorax -10.253 1.76776 4.91322
lowerneck 3.83745 -14.5936 -15.7668
upperneck -2.68619 -20.769 22.6314
head 2.75504 -10.7355 8.44114
lclavicle 3.37633e-14 2.40141e-14 0
lhumerus -56.1627 -48.0057 120.571
lradius 100.781 0 0
lwrist 40.3211 0 0
lhand -3.8571 39.6346 0
lfingers 7.12502 0 0
lthumb 21.8932 68.4996 0
rclavicle 3.37633e-14 2.40141e-14 0
rhumerus 58.2241 29.309 -18.7369
rradius 103.914 0 0
rwrist -0.774262 0 0
rhand 7.25652 -18.811 0
rfingers 7.12502 0 0
rthumb 32.4767 -67.6543 0
1735
root -4.56106 15.7348 27.6823 932.446 10.5902 159.656
lfemur -50.4767 25.3803 -20.9831
ltibia 67.469 0 0
lfoot -16.2853 32.3709 0
ltoes -1.87644 0 0
rfemur -22.9395 -23.2052 21.3581
rtibia 72.7528 0 0
rfoot -9.63062 -27.4362 0
rtoes 13.046 0 0
lowerback 14.9793 2.81882 -3.96957
upperback -1.4961 3.25308 2.91495
thorax -10.2699 1.86718 4.72163
lowerneck 3.63009 -14.4764 -15.6725
upperneck -2.52124 -20.5809 22.4902
head 2.75777 -10.6214 8.39056
lclavicle 3.03531e-14 2.30393e-14 0
lhumerus -57.9261 -47.4782 120.352
lradius 101.782 0 0
lwrist 40.3673 0 0
lhand -3.89673 39.1784 0
lfingers 7.12502 0 0
lthumb 21.8556 68.0629 0
rclavicle 3.03531e-14 2.30393e-14 0
rhumerus 57.9421 28.5294 -19.1702
rradius 101.342 0 0
rwrist 1.45991 0 0
rhand 7.08484 -17.7544 0
rfingers 7.12502 0 0
rthumb 32.311 -69.9424 0
1736
root -4.53044 15.7452 27.7223 932.19 13.2322 158.809
lfemur -49.9872 25.0583 -20.4054
ltibia 68.1406 0 0
lfoot -16.191 32.017 0
ltoes -2.70857 0 0
rfemur -23.3644 -24.0562 21.8085
rtibia 72.4394 0 0
rfoot -9.68528 -27.4142 0
rtoes 12.6306 0 0
lowerback 14.9662 2.97953 -3.9177
upperback -1.51179 3.47063 2.81496
thorax -10.2835 1.96582 4.53183
lowerneck 3.42467 -14.3601 -15.5773
upperneck -2.35641 -20.3934 22.3431
head 2.75873 -10.5072 8.33851
lclavicle 2.68277e-14 2.2035e-14 0
lhumerus -59.709 -46.9371 120.1
lradius 102.805 0 0
lwrist 40.4287 0 0
lhand -3.94155 38.7143 0
lfingers 7.12502 0 0
lthumb 21.8131 67.6192 0
rclavicle 2.68277e-14 2.2035e-14 0
rhumerus 57.6462 27.7216 -19.6218
rradius 98.6962 0 0
rwrist 3.69852 0 0
rhand 6.91624 -16.6912 0
rfingers 7.12502 0 0
rthumb 32.1483 -72.2849 0
1737
root -4.50736 15.7546 27.7559 931.69 15.8104 158.176
lfemur -49.4484 24.6858 -19.8172
ltibia 68.8119 0 0
lfoot -16.1057 31.6606 0
ltoes -3.59803 0 0
rfemur -23.8209 -24.886 22.2372
rtibia 72.0767 0 0
rfoot -9.7266 -27.3659 0
rtoes 12.176 0 0
lowerback 14.9535 3.1397 -3.87073
upperback -1.52469 3.68652 2.71361
thorax -10.294 2.06357 4.34369
lowerneck 3.22079 -14.2437 -15.4806
upperneck -2.19132 -20.2051 22.1897
head 2.75809 -10.3924 8.28477
lclavicle 2.31989e-14 2.10048e-14 0
lhumerus -61.5001 -46.3807 119.817
lradius 103.84 0 0
lwrist 40.4976 0 0
lhand -3.99314 38.2441 0
lfingers 7.12502 0 0
lthumb 21.7641 67.1701 0
rclavicle 2.31989e-14 2.10048e-14 0
rhumerus 57.3307 26.8877 -20.0932
rradius 95.9876 0 0
rwrist 5.92686 0 0
rhand 6.74583 -15.6331 0
rfingers 7.12502 0 0
rthumb 31.9838 -74.6575 0
1738
root -4.49072 15.763 27.7836 930.972 18.3285 157.752
lfemur -48.8648 24.2663 -19.219
ltibia 69.4802 0 0
lfoot -16.0267 31.3004 0
ltoes -4.5384 0 0
rfemur -24.3042 -25.6942 22.645
rtibia 71.6682 0 0
rfoot -9.75692 -27.2935 0
rtoes 11.684 0 0
lowerback 14.9412 3.29902 -3.8277
upperback -1.53489 3.90051 2.61122
thorax -10.3014 2.16031 4.15705
lowerneck 3.01808 -14.1262 -15.3818
upperneck -2.0256 -20.0147 22.0294
head 2.75606 -10.2764 8.22913
lclavicle 1.94785e-14 1.99521e-14 0
lhumerus -63.2879 -45.8076 119.505
lradius 104.879 0 0
lwrist 40.5662 0 0
lhand -4.05307 37.7694 0
lfingers 7.12502 0 0
lthumb 21.707 66.7173 0
rclavicle 1.94785e-14 1.99521e-14 0
rhumerus 56.99 26.0299 -20.5857
rradius 93.2273 0 0
rwrist 8.13021 0 0
rhand 6.56873 -14.5919 0
rfingers 7.12502 0 0
rthumb 31.813 -77.036 0
1739
root -4.47942 15.7704 27.8056 930.063 20.79 157.533
lfemur -48.2409 23.8036 -18.6111
ltibia 70.1424 0 0
lfoot -15.9516 30.9352 0
ltoes -5.52328 0 0
rfemur -24.8098 -26.48 23.0326
rtibia 71.2172 0 0
rfoot -9.77855 -27.1988 0
rtoes 11.1563 0 0
lowerback 14.9291 3.45719 -3.78762
upperback -1.54247 4.11238 2.50812
thorax -10.3057 2.25593 3.97176
lowerneck 2.81617 -14.0066 -15.2802
upperneck -1.85886 -19.8209 21.8617
head 2.75282 -10.1585 8.17138
lclavicle 1.56785e-14 1.88804e-14 0
lhumerus -65.0611 -45.2163 119.167
lradius 105.914 0 0
lwrist 40.6268 0 0
lhand -4.12293 37.2922 0
lfingers 7.12502 0 0
lthumb 21.6404 66.2626 0
rclavicle 1.56785e-14 1.88804e-14 0
rhumerus 56.6187 25.1504 -21.1005
rradius 90.4264 0 0
rwrist 10.2939 0 0
rhand 6.38008 -13.5793 0
rfingers 7.12502 0 0
rthumb 31.6312 -79.3962 0
1740
root -4.47234 15.7767 27.8226 928.992 23.1983 157.514
lfemur -47.5813 23.3013 -17.9942
ltibia 70.7958 0 0
lfoot -15.8778 30.5637 0
ltoes -6.54625 0 0
rfemur -25.3331 -27.2429 23.4008
rtibia 70.7273 0 0
rfoot -9.79382 -27.0839 0
rtoes 10.5946 0 0
lowerback 14.9173 3.61389 -3.74953
upperback -1.54755 4.32192 2.40462
thorax -10.307 2.3503 3.78769
lowerneck 2.61467 -13.8839 -15.1753
upperneck -1.69073 -19.6223 21.6862
head 2.74855 -10.038 8.1113
lclavicle 1.18106e-14 1.77931e-14 0
lhumerus -66.8083 -44.6052 118.802
lradius 106.935 0 0
lwrist 40.6717 0 0
lhand -4.20428 36.8139 0
lfingers 7.12502 0 0
lthumb 21.5627 65.8076 0
rclavicle 1.18106e-14 1.77931e-14 0
rhumerus 56.211 24.2513 -21.6392
rradius 87.5958 0 0
rwrist 12.4031 0 0
rhand 6.17499 -12.607 0
rfingers 7.12502 0 0
rthumb 31.4337 -81.7139 0
1741
root -4.46839 15.7819 27.8349 927.786 25.557 157.692
lfemur -46.8903 22.7631 -17.3686
ltibia 71.4375 0 0
lfoot -15.8029 30.1845 0
ltoes -7.60091 0 0
rfemur -25.8693 -27.982 23.7505
rtibia 70.202 0 0
rfoot -9.80505 -26.9507 0
rtoes 10.0007 0 0
lowerback 14.9057 3.76881 -3.71244
upperback -1.5502 4.5289 2.30104
thorax -10.3054 2.44333 3.60467
lowerneck 2.4132 -13.757 -15.0664
upperneck -1.52084 -19.4177 21.5024
head 2.74345 -9.91437 8.04867
lclavicle 7.88666e-15 1.66937e-14 0
lhumerus -68.5183 -43.9727 118.414
lradius 107.933 0 0
lwrist 40.6932 0 0
lhand -4.29871 36.3366 0
lfingers 7.12502 0 0
lthumb 21.4724 65.354 0
rclavicle 7.88666e-15 1.66937e-14 0
rhumerus 55.7615 23.3348 -22.203
rradius 84.7467 0 0
rwrist 14.4431 0 0
rhand 5.94859 -11.6867 0
rfingers 7.12502 0 0
rthumb 31.2158 -83.965 0
1742
root -4.46646 15.786 27.8429 926.473 27.8697 158.063
lfemur -46.1724 22.1927 -16.7349
ltibia 72.0645 0 0
lfoot -15.7244 29.7965 0
ltoes -8.68085 0 0
rfemur -26.4139 -28.6969 24.0825
rtibia 69.6447 0 0
rfoot -9.81456 -26.8013 0
rtoes 9.37612 0 0
lowerback 14.8941 3.92164 -3.67539
upperback -1.55052 4.73311 2.19771
thorax -10.3008 2.53488 3.42256
lowerneck 2.21139 -13.6249 -14.9529
upperneck -1.3488 -19.2055 21.3097
head 2.73769 -9.78694 7.98328
lclavicle 3.9186e-15 1.55856e-14 0
lhumerus -70.1796 -43.3174 118.004
lradius 108.901 0 0
lwrist 40.6836 0 0
lhand -4.40778 35.8618 0
lfingers 7.12502 0 0
lthumb 21.368 64.9035 0
rclavicle 3.9186e-15 1.55856e-14 0
rhumerus 55.2646 22.403 -22.7932
rradius 81.8901 0 0
rwrist 16.3993 0 0
rhand 5.69601 -10.8304 0
rfingers 7.12502 0 0
rthumb 30.9729 -86.1252 0
1743
root -4.46543 15.7889 27.8471 925.079 30.1399 158.621
lfemur -45.4323 21.5938 -16.0936
ltibia 72.6741 0 0
lfoot -15.6398 29.3982 0
ltoes -9.77965 0 0
rfemur -26.9622 -29.3869 24.3974
rtibia 69.0588 0 0
rfoot -9.82469 -26.6376 0
rtoes 8.72269 0 0
lowerback 14.8826 4.07207 -3.63739
upperback -1.54861 4.93432 2.09493
thorax -10.2935 2.62484 3.24122
lowerneck 2.00885 -13.4865 -14.8342
upperneck -1.17425 -18.9846 21.1078
head 2.73148 -9.65507 7.91493
lclavicle -8.17497e-17 1.44724e-14 0
lhumerus -71.7809 -42.6377 117.573
lradius 109.83 0 0
lwrist 40.6352 0 0
lhand -4.53307 35.3913 0
lfingers 7.12502 0 0
lthumb 21.248 64.4579 0
rclavicle -8.17497e-17 1.44724e-14 0
rhumerus 54.7146 21.458 -23.4112
rradius 79.037 0 0
rwrist 18.2568 0 0
rhand 5.41235 -10.0496 0
rfingers 7.12502 0 0
rthumb 30.7004 -88.1702 0
1744
root -4.46421 15.7907 27.848 923.633 32.3712 159.363
lfemur -44.6743 20.97 -15.445
ltibia 73.2632 0 0
lfoot -15.5465 28.9885 0
ltoes -10.8909 0 0
rfemur -27.5097 -30.0512 24.6963
rtibia 68.448 0 0
rfoot -9.83775 -26.4617 0
rtoes 8.04209 0 0
lowerback 14.8711 4.21979 -3.59747
upperback -1.54456 5.13232 1.99303
thorax -10.2834 2.71311 3.0605
lowerneck 1.80521 -13.3409 -14.7095
upperneck -0.996805 -18.7536 20.896
head 2.72498 -9.51813 7.84338
lclavicle -4.10256e-15 1.33574e-14 0
lhumerus -73.3108 -41.9321 117.124
lradius 110.71 0 0
lwrist 40.5403 0 0
lhand -4.67617 34.927 0
lfingers 7.12502 0 0
lthumb 21.1108 64.0188 0
rclavicle -4.10256e-15 1.33574e-14 0
rhumerus 54.106 20.502 -24.0584
rradius 76.1985 0 0
rwrist 20.0011 0 0
rhand 5.09276 -9.35612 0
rfingers 7.12502 0 0
rthumb 30.3934 -90.076 0
